<svg version="1.1" id="Layer_1" xmlns="http://www.w3.org/2000/svg" xmlns:xlink="http://www.w3.org/1999/xlink" x="0px" y="0px"
	 width="100%" viewBox="0 0 288 256" enable-background="new 0 0 288 256" xml:space="preserve">
<path fill="#FFFFFF" opacity="1.000000" stroke="none"
	d="
M92.242722,26.510944
	C92.280594,39.794857 92.278259,52.627094 92.300552,65.459282
	C92.346794,92.073463 108.920280,111.666328 136.107788,115.365128
	C133.968613,113.507149 131.619461,111.840424 129.724594,109.759933
	C118.041534,96.932281 113.209091,81.522133 113.038406,64.441154
	C112.830391,43.624504 112.809845,47.184551 129.217194,41.577213
	C137.407501,38.778118 145.687408,36.241104 153.876770,33.439354
	C157.500488,32.199604 160.902832,32.155025 164.579102,33.407089
	C175.920242,37.269634 187.325409,40.948162 198.746735,44.568741
	C202.012222,45.603909 204.937180,47.178986 205.126236,50.745918
	C206.040817,68.001083 205.922745,85.111374 196.016144,100.431427
	C192.389282,106.040184 188.115555,111.075157 182.839081,115.795357
	C203.385681,114.814201 222.670349,96.107506 225.747375,75.081688
	C226.939621,66.934898 226.436432,58.801254 226.659851,50.658813
	C226.745941,47.521034 225.491364,45.964268 222.254791,46.154812
	C220.219986,46.274609 218.217636,45.890781 216.459808,44.896561
	C213.921997,43.461216 212.637466,41.083794 212.941742,38.225582
	C213.247864,35.349998 214.954010,33.203350 217.874512,32.597523
	C223.633392,31.402916 229.460358,31.444635 235.215591,32.586063
	C238.133759,33.164818 240.112030,35.447983 240.101913,38.246410
	C240.050842,52.371906 241.857834,66.622444 238.752655,80.587601
	C231.003906,115.436668 198.592896,136.031006 162.638168,129.004425
	C159.491547,128.389481 156.710968,128.900070 153.816376,129.396408
	C117.387932,135.642731 84.904480,113.012627 79.184830,76.431206
	C77.555016,66.007393 78.710342,55.147854 78.592957,44.488075
	C78.574608,42.821705 78.496162,41.150299 78.590584,39.489471
	C78.854385,34.849255 76.979988,32.836159 72.103851,33.222130
	C67.467789,33.589096 62.776489,33.339733 58.111912,33.243412
	C52.771950,33.133144 49.939976,30.856863 49.709114,26.677067
	C49.460075,22.168259 52.023823,19.459740 57.755749,19.316732
	C66.574875,19.096706 75.406540,19.402166 84.233078,19.447338
	C88.732559,19.470364 91.432823,21.586786 92.242722,26.510944
M150.390854,109.100899
	C156.593567,114.567207 162.395844,113.232758 168.744186,108.841415
	C186.047104,96.872437 192.572388,80.133232 191.676590,59.756207
	C191.562637,57.164261 190.040741,56.366966 188.050308,55.721485
	C179.353378,52.901127 170.657928,50.076172 161.962875,47.250000
	C160.364029,46.730324 158.843613,46.482563 157.115723,47.062557
	C148.289337,50.025272 139.424820,52.874897 130.563293,55.732002
	C128.415253,56.424561 127.414749,57.676037 127.261093,60.066051
	C125.954285,80.391518 132.636948,96.961990 150.390854,109.100899
z"/>
<path fill="#FFFFFF" opacity="1.000000" stroke="none"
	d="
M69.867920,212.185196
	C70.963478,209.069321 71.932434,206.237885 72.953072,203.425201
	C73.553658,201.770111 74.486122,200.413269 76.512077,200.499908
	C78.275162,200.575317 79.113014,201.780701 79.658669,203.275833
	C80.904747,206.690109 82.148636,210.105164 84.320076,213.485962
	C85.121887,207.036911 85.745140,200.558640 86.793312,194.149887
	C87.409851,190.380234 86.904816,185.474991 93.114204,184.961472
	C94.261009,189.673920 92.793312,194.001831 92.288780,198.338898
	C91.157387,208.064621 89.810326,217.765335 88.534615,227.474091
	C88.292526,229.316483 88.044846,231.380081 85.763031,231.683685
	C83.140472,232.032623 82.550636,229.760727 81.851295,227.925507
	C80.149864,223.460510 79.093628,218.742249 76.575066,214.091995
	C73.789635,218.213287 73.050346,222.692795 71.435562,226.800415
	C70.596245,228.935471 70.268799,231.845200 67.302429,231.674774
	C64.274551,231.500809 64.183922,228.523575 63.892643,226.304108
	C62.186054,213.300491 60.597218,200.281387 59.006660,187.262848
	C58.932846,186.658691 59.222771,186.010086 59.374039,185.221970
	C63.295063,184.879303 64.883072,186.896362 65.352051,190.298691
	C66.394531,197.861557 67.461151,205.421082 68.529228,212.980392
	C68.547302,213.108276 68.707924,213.216019 68.802032,213.333145
	C69.122360,213.047928 69.442696,212.762726 69.867920,212.185196
z"/>
<path fill="#FFFFFF" opacity="1.000000" stroke="none"
	d="
M156.564636,211.379913
	C153.858124,214.770294 150.469818,216.224030 146.706238,216.141861
	C142.741089,216.055298 141.853073,217.976807 142.059189,221.356552
	C142.200867,223.680222 142.174454,226.045181 140.995850,228.171356
	C140.220169,229.570709 139.018478,230.566772 137.351852,230.261444
	C135.577408,229.936386 135.792816,228.316681 135.789627,227.036453
	C135.757751,214.229935 135.768341,201.423294 135.755264,188.616699
	C135.751831,185.265259 137.566055,183.955475 140.742981,183.745834
	C157.494690,182.640381 161.202576,190.963593 158.594177,207.012405
	C158.364243,208.427094 157.421936,209.726013 156.564636,211.379913
M145.534958,209.835480
	C148.331802,209.958603 151.275375,209.607147 152.169342,206.646179
	C153.469742,202.339111 153.398178,197.727753 152.217575,193.414200
	C151.313385,190.110611 148.094971,190.055481 145.175049,190.158188
	C141.997894,190.269943 142.108154,192.598160 142.088898,194.778931
	C142.056747,198.422531 142.067657,202.066986 142.107193,205.710556
	C142.127457,207.576202 142.190613,209.478348 145.534958,209.835480
z"/>
<path fill="#FFFFFF" opacity="1.000000" stroke="none"
	d="
M163.424957,223.014069
	C162.437759,217.823257 162.675278,212.981918 163.039062,208.203308
	C163.553421,201.446808 168.366928,197.589371 175.274261,197.844574
	C182.374832,198.106949 186.160828,201.982483 186.307098,209.226730
	C186.374176,212.548172 186.353592,215.872406 186.315567,219.194733
	C186.235733,226.173569 183.421539,229.871628 177.350464,231.050476
	C170.921722,232.298767 166.233459,229.704956 163.424957,223.014069
M169.436035,207.339844
	C169.378906,210.995209 169.378769,214.652603 169.248993,218.305389
	C169.112976,222.133530 170.027588,224.821594 174.656189,224.815399
	C179.356750,224.809113 180.668198,222.128815 180.640671,218.082138
	C180.624832,215.754166 180.652634,213.425873 180.633865,211.097946
	C180.613235,208.541275 180.496048,205.736755 177.734131,204.748718
	C174.904510,203.736465 171.795959,203.392944 169.436035,207.339844
z"/>
<path fill="#FFFFFF" opacity="1.000000" stroke="none"
	d="
M112.079201,229.181885
	C109.158272,230.910126 107.913391,229.755814 107.884171,227.167862
	C107.790337,218.857895 107.820595,210.546310 107.837311,202.235413
	C107.841919,199.943665 108.985970,198.248215 111.280762,198.051056
	C115.735283,197.668365 120.232155,197.251053 124.655579,198.402466
	C129.549667,199.676407 131.773972,203.272568 132.010345,207.935608
	C132.312912,213.904816 132.142120,219.900436 132.088379,225.883911
	C132.069992,227.930679 131.760483,230.220184 129.163315,230.352966
	C126.163757,230.506302 125.871368,228.020752 125.831001,225.814423
	C125.730629,220.330353 125.683350,214.842209 125.779579,209.358597
	C125.862991,204.604980 122.892647,204.211624 119.191101,204.047775
	C115.189240,203.870621 113.893738,205.535675 114.087387,209.341568
	C114.306725,213.652298 114.125031,217.983154 114.128769,222.305252
	C114.130806,224.659012 114.006104,226.973557 112.079201,229.181885
z"/>
<path fill="#FFFFFF" opacity="1.000000" stroke="none"
	d="
M202.763763,230.042267
	C199.706955,229.675064 200.123581,227.492386 200.104782,225.805511
	C200.021362,218.317078 200.093323,210.827011 200.091446,203.337524
	C200.090546,199.710449 201.701569,197.966537 205.498199,197.731766
	C221.189178,196.761505 224.315628,199.613113 224.296631,215.326889
	C224.292419,218.822067 224.313904,222.317459 224.281860,225.812363
	C224.260864,228.103271 223.923019,230.477982 220.973373,230.362030
	C218.225479,230.253998 218.266830,227.703003 218.201599,225.803619
	C218.018829,220.483139 217.908508,215.149719 218.072220,209.830704
	C218.235199,204.535904 215.098999,204.177795 210.957718,204.047607
	C206.477234,203.906784 206.176437,206.340271 206.267792,209.707657
	C206.394104,214.364563 206.287582,219.027451 206.310928,223.687622
	C206.324142,226.321808 205.830841,228.673660 202.763763,230.042267
z"/>
<path fill="#FFFFFF" opacity="1.000000" stroke="none"
	d="
M247.995743,198.676483
	C249.790680,199.808746 250.911087,200.957825 250.671997,202.859299
	C249.812943,204.311783 248.356949,204.290741 247.099472,204.135941
	C242.434662,203.561630 240.709686,205.573929 241.238739,210.119461
	C241.487488,212.256775 241.351303,214.448563 241.276535,216.611771
	C241.134033,220.734711 242.458206,223.773895 246.857269,224.811783
	C249.087280,225.337936 250.559433,226.768692 249.953903,229.124863
	C249.243271,231.890076 246.985336,231.194382 245.027130,230.715195
	C239.842468,229.446442 236.694290,226.259949 235.502548,220.976120
	C234.755096,217.662247 234.919098,214.350082 234.920395,211.031158
	C234.921707,207.661194 235.320312,204.275696 230.942841,202.997803
	C229.680450,202.629288 228.836731,201.293991 228.949402,199.814743
	C229.086349,198.016739 230.600311,197.895935 231.911423,197.823303
	C234.792160,197.663712 234.778381,195.637192 234.894409,193.566574
	C235.021240,191.303055 235.444885,188.861603 238.345734,189.063538
	C240.800034,189.234406 241.462646,191.474014 241.231888,193.581528
	C240.651596,198.881683 245.199142,197.277588 247.995743,198.676483
z"/>
<path fill="#FFFFFF" opacity="1.000000" stroke="none"
	d="
M129.719055,158.840439
	C125.626816,161.808060 121.693901,162.206635 117.960648,159.200577
	C114.958267,156.783020 113.262238,153.583511 114.298195,149.558151
	C115.311012,145.622726 117.905067,143.274567 121.945091,142.726624
	C125.865791,142.194870 129.249649,143.245712 131.405930,146.782227
	C133.993546,151.026154 133.374252,154.991531 129.719055,158.840439
z"/>
<path fill="#FFFFFF" opacity="1.000000" stroke="none"
	d="
M192.562790,160.943298
	C186.847809,158.277756 184.751770,154.889465 185.631149,150.011993
	C186.397873,145.759445 189.028244,143.305649 193.281342,142.721710
	C199.209045,141.907837 203.992294,145.781113 204.205765,151.460968
	C204.421249,157.194305 199.714600,161.209061 192.562790,160.943298
z"/>
<path fill="#FFFFFF" opacity="1.000000" stroke="none"
	d="
M97.804955,203.483276
	C97.930984,200.744507 98.331421,198.431000 101.277740,198.652832
	C103.883347,198.849014 104.083290,201.170303 104.100929,203.178345
	C104.167847,210.797348 104.167137,218.417358 104.125687,226.036636
	C104.114388,228.113647 103.675026,230.343719 101.116646,230.408981
	C98.157707,230.484467 97.896744,227.984879 97.871178,225.793564
	C97.786156,218.505951 97.813408,211.217041 97.804955,203.483276
z"/>
<path fill="#FFFFFF" opacity="1.000000" stroke="none"
	d="
M190.575897,207.118591
	C190.602844,204.982574 190.610825,203.326218 190.662888,201.671234
	C190.714966,200.014893 191.296768,198.684204 193.188339,198.619858
	C194.959396,198.559616 196.133911,199.635193 196.151611,201.306107
	C196.244446,210.080429 196.237534,218.856537 196.166855,227.631210
	C196.153305,229.312149 195.041672,230.466476 193.300522,230.446747
	C191.101852,230.421829 190.667404,228.751678 190.653687,226.975937
	C190.603760,220.517105 190.598404,214.057922 190.575897,207.118591
z"/>
<path fill="#FFFFFF" opacity="1.000000" stroke="none"
	d="
M100.979141,194.915619
	C100.425644,194.855713 100.227310,194.836609 100.124260,194.727509
	C97.519035,191.969391 96.972351,186.751633 99.136063,184.992752
	C100.519943,183.867828 101.861885,184.013779 103.053040,185.367126
	C105.063301,187.651108 104.256516,192.261093 100.979141,194.915619
z"/>
<path fill="#FFFFFF" opacity="1.000000" stroke="none"
	d="
M195.796402,193.249527
	C194.506485,194.909042 193.147217,195.577927 191.782547,194.276001
	C189.708801,192.297607 190.699783,189.636002 190.631088,187.240540
	C190.589462,185.788879 191.300140,184.565598 192.758606,184.283051
	C194.779022,183.891647 195.961853,185.173752 196.143036,186.986160
	C196.336975,188.926331 196.063339,190.913254 195.796402,193.249527
z"/>
<path fill="#FFFFFF" opacity="1.000000" stroke="none"
	d="
M150.412842,82.140808
	C149.370178,75.664566 151.931107,71.505737 157.434006,70.119354
	C161.674835,69.050934 166.715988,71.895546 168.119049,76.148697
	C169.700592,80.942932 167.652374,85.798729 163.198822,87.813301
	C158.334290,90.013786 153.671616,88.057693 150.412842,82.140808
z"/>
</svg>