<svg version="1.0" xmlns="http://www.w3.org/2000/svg"
 width="508.000000pt" height="372.000000pt" viewBox="0 0 508.000000 372.000000"
 preserveAspectRatio="xMidYMid meet">
<g transform="translate(0.000000,372.000000) scale(0.100000,-0.100000)"
fill="#FFFFFF" stroke="none">
<path d="M322 3490 c-104 -47 -102 -212 3 -256 27 -11 92 -14 304 -14 l269 0
5 -477 c5 -511 7 -538 62 -728 30 -105 114 -286 175 -376 206 -307 508 -518
863 -604 213 -52 450 -54 651 -6 78 19 78 19 190 -4 326 -66 632 -27 931 120
338 167 606 474 725 831 61 186 63 208 67 694 4 430 3 446 -16 477 -41 65 -53
68 -277 68 -189 0 -204 -1 -230 -21 -67 -50 -86 -122 -50 -191 28 -56 57 -67
180 -73 l111 -5 -1 -305 c-1 -240 -4 -323 -17 -391 -57 -294 -212 -542 -453
-725 -133 -101 -374 -197 -528 -210 l-71 -6 40 32 c77 63 205 203 265 290 115
168 198 367 236 563 20 105 32 591 15 646 -22 75 -30 79 -546 246 -339 111
-486 154 -504 150 -95 -23 -932 -301 -958 -319 -59 -38 -63 -58 -63 -318 0
-333 25 -491 109 -695 85 -207 218 -392 382 -533 l70 -60 -36 0 c-20 0 -70 7
-111 16 -491 101 -858 502 -914 999 -5 50 -10 318 -10 596 l0 506 -23 34 c-45
68 -51 69 -447 69 -330 0 -358 -2 -398 -20z m2791 -692 l377 -122 0 -156 c0
-234 -28 -391 -100 -552 -103 -235 -296 -440 -524 -557 -125 -64 -122 -63
-204 -25 -289 133 -511 381 -613 682 -44 128 -59 243 -59 438 l0 170 368 121
c202 67 369 122 372 122 3 1 175 -54 383 -121z"/>
<path d="M2655 2336 c-38 -17 -90 -72 -104 -109 -17 -45 -13 -124 9 -166 74
-146 280 -147 357 -2 52 99 13 220 -89 272 -44 22 -128 25 -173 5z"/>
<path d="M1855 688 c-138 -48 -179 -224 -77 -331 40 -43 81 -60 143 -61 148
-2 247 161 179 294 -44 86 -154 130 -245 98z"/>
<path d="M3482 689 c-51 -15 -116 -86 -130 -142 -50 -198 190 -336 334 -193
87 86 83 212 -9 293 -55 48 -122 63 -195 42z"/>
</g>
</svg>
