<svg version="1.1" id="Layer_1" xmlns="http://www.w3.org/2000/svg" xmlns:xlink="http://www.w3.org/1999/xlink" x="0px" y="0px"
	 width="100%" viewBox="0 0 446 340" enable-background="new 0 0 446 340" xml:space="preserve">
<path fill="#FFFFFF" opacity="1.000000" stroke="none"
	d="
M290.000000,341.000000
	C193.333344,341.000000 97.166702,341.000000 1.000039,341.000000
	C1.000026,227.666702 1.000026,114.333405 1.000013,1.000084
	C149.666611,1.000056 298.333221,1.000056 446.999878,1.000028
	C446.999908,114.333252 446.999908,227.666504 446.999939,340.999878
	C394.833344,341.000000 342.666656,341.000000 290.000000,341.000000
M71.498993,10.640265
	C54.500652,10.640739 37.500610,10.516380 20.505430,10.748320
	C17.156149,10.794028 13.466823,11.555357 10.562827,13.139105
	C4.914768,16.219376 2.640109,23.092333 4.404913,29.159548
	C6.261441,35.542095 11.785716,39.742035 19.065918,39.800579
	C34.229778,39.922527 49.395294,39.839428 64.560127,39.840546
	C66.300423,39.840672 68.040718,39.840561 69.968536,39.840561
	C69.968536,43.258202 69.945641,45.911182 69.972061,48.563671
	C70.250832,76.546555 69.165596,104.626656 71.141632,132.489517
	C74.147911,174.879333 94.348343,208.881775 128.327332,234.031570
	C164.908859,261.107635 205.898483,268.231659 250.081985,257.810394
	C252.087860,257.337280 254.390198,257.122345 256.351624,257.607300
	C293.686218,266.838989 329.631866,263.253326 363.095276,244.126083
	C409.037598,217.866013 433.961639,177.716675 436.898193,124.854172
	C438.190338,101.593987 437.238068,78.205238 437.168945,54.875263
	C437.141815,45.723801 431.274811,39.943756 422.135620,39.845890
	C412.304565,39.740608 402.471161,39.764462 392.639557,39.836571
	C383.485901,39.903706 376.955627,46.067871 377.017883,54.420067
	C377.080292,62.794399 383.617310,68.836670 392.799652,68.938286
	C397.751343,68.993088 402.704102,68.948044 408.012207,68.948044
	C408.012207,86.874809 408.097473,104.330391 407.956726,121.784149
	C407.917908,126.596359 407.611725,131.478394 406.737823,136.200607
	C398.937927,178.347305 375.401276,208.051758 335.954895,224.988937
	C327.648499,228.555466 310.491577,233.166595 302.153900,232.251099
	C303.684418,230.904984 305.020660,229.705551 306.382263,228.535706
	C333.999298,204.808578 351.556244,175.184418 355.868073,138.939743
	C358.060760,120.508339 357.461487,101.715004 357.581512,83.081772
	C357.628265,75.827774 352.967468,71.295418 346.073853,69.060364
	C317.304718,59.732807 288.596985,50.211224 259.741516,41.160046
	C255.899078,39.954784 251.016312,40.011692 247.162750,41.224060
	C218.473373,50.250042 189.917557,59.701118 161.330505,69.051445
	C153.199951,71.710815 149.701675,76.445671 149.653198,84.944466
	C149.585709,96.775986 149.436218,108.612114 149.671234,120.439323
	C150.354126,154.804871 161.636292,185.278976 183.905884,211.524765
	C190.338959,219.106461 197.233505,226.296616 203.027252,232.685654
	C186.594406,231.373383 169.392548,226.153122 153.894348,216.217712
	C118.252731,193.369019 99.879311,160.513794 99.163841,118.244865
	C98.647789,87.757271 99.080811,57.253918 99.050323,26.757633
	C99.039955,16.383120 93.408516,10.777878 82.996780,10.649184
	C79.497726,10.605935 75.997711,10.640916 71.498993,10.640265
M320.625763,326.912964
	C328.703979,333.143097 337.459534,333.990112 345.100922,329.280792
	C352.104858,324.964355 356.079346,316.458618 354.643768,308.858307
	C352.935791,299.815887 346.565308,293.326813 338.006348,291.911224
	C329.154449,290.447144 320.774567,294.425171 316.545349,302.099030
	C312.155365,310.064636 313.424591,318.718842 320.625763,326.912964
M157.735397,297.222107
	C150.428543,305.393982 149.369980,314.924469 154.855591,323.149658
	C160.050339,330.938721 169.810043,334.308228 178.483444,331.128265
	C186.544983,328.172638 191.260452,322.349335 192.058609,313.774658
	C192.859085,305.174957 189.302673,298.379272 181.851471,294.229340
	C173.631119,289.651031 165.577179,290.719482 157.735397,297.222107
z"/>
<path fill="#FFFFFF" opacity="1.000000" stroke="none"
	d="
M71.998566,10.640203
	C75.997711,10.640916 79.497726,10.605935 82.996780,10.649184
	C93.408516,10.777878 99.039955,16.383120 99.050323,26.757633
	C99.080811,57.253918 98.647789,87.757271 99.163841,118.244865
	C99.879311,160.513794 118.252731,193.369019 153.894348,216.217712
	C169.392548,226.153122 186.594406,231.373383 203.027252,232.685654
	C197.233505,226.296616 190.338959,219.106461 183.905884,211.524765
	C161.636292,185.278976 150.354126,154.804871 149.671234,120.439323
	C149.436218,108.612114 149.585709,96.775986 149.653198,84.944466
	C149.701675,76.445671 153.199951,71.710815 161.330505,69.051445
	C189.917557,59.701118 218.473373,50.250042 247.162750,41.224060
	C251.016312,40.011692 255.899078,39.954784 259.741516,41.160046
	C288.596985,50.211224 317.304718,59.732807 346.073853,69.060364
	C352.967468,71.295418 357.628265,75.827774 357.581512,83.081772
	C357.461487,101.715004 358.060760,120.508339 355.868073,138.939743
	C351.556244,175.184418 333.999298,204.808578 306.382263,228.535706
	C305.020660,229.705551 303.684418,230.904984 302.153900,232.251099
	C310.491577,233.166595 327.648499,228.555466 335.954895,224.988937
	C375.401276,208.051758 398.937927,178.347305 406.737823,136.200607
	C407.611725,131.478394 407.917908,126.596359 407.956726,121.784149
	C408.097473,104.330391 408.012207,86.874809 408.012207,68.948044
	C402.704102,68.948044 397.751343,68.993088 392.799652,68.938286
	C383.617310,68.836670 377.080292,62.794399 377.017883,54.420067
	C376.955627,46.067871 383.485901,39.903706 392.639557,39.836571
	C402.471161,39.764462 412.304565,39.740608 422.135620,39.845890
	C431.274811,39.943756 437.141815,45.723801 437.168945,54.875263
	C437.238068,78.205238 438.190338,101.593987 436.898193,124.854172
	C433.961639,177.716675 409.037598,217.866013 363.095276,244.126083
	C329.631866,263.253326 293.686218,266.838989 256.351624,257.607300
	C254.390198,257.122345 252.087860,257.337280 250.081985,257.810394
	C205.898483,268.231659 164.908859,261.107635 128.327332,234.031570
	C94.348343,208.881775 74.147911,174.879333 71.141632,132.489517
	C69.165596,104.626656 70.250832,76.546555 69.972061,48.563671
	C69.945641,45.911182 69.968536,43.258202 69.968536,39.840561
	C68.040718,39.840561 66.300423,39.840672 64.560127,39.840546
	C49.395294,39.839428 34.229778,39.922527 19.065918,39.800579
	C11.785716,39.742035 6.261441,35.542095 4.404913,29.159548
	C2.640109,23.092333 4.914768,16.219376 10.562827,13.139105
	C13.466823,11.555357 17.156149,10.794028 20.505430,10.748320
	C37.500610,10.516380 54.500652,10.640739 71.998566,10.640203
M311.296326,178.754318
	C315.870972,167.933670 321.220093,157.364578 324.835938,146.232498
	C330.062653,130.141129 328.312988,113.244324 328.261932,96.624039
	C328.258087,95.374413 326.196167,93.474777 324.722534,92.984283
	C302.024475,85.429482 279.277008,78.021881 256.497223,70.716629
	C254.750626,70.156525 252.517212,70.125374 250.777420,70.682793
	C227.836349,78.032768 204.958038,85.578552 182.017776,92.931091
	C179.442261,93.756569 178.731293,95.002266 178.788727,97.551804
	C178.946289,104.545784 178.824661,111.545685 178.847427,118.543137
	C178.999496,165.286804 206.560379,206.588593 249.762543,224.445847
	C252.017990,225.378128 255.347733,225.295914 257.622772,224.350922
	C280.106903,215.011841 297.879547,199.960159 311.296326,178.754318
z"/>
<path fill="#FFFFFF" opacity="1.000000" stroke="none"
	d="
M320.367859,326.658691
	C313.424591,318.718842 312.155365,310.064636 316.545349,302.099030
	C320.774567,294.425171 329.154449,290.447144 338.006348,291.911224
	C346.565308,293.326813 352.935791,299.815887 354.643768,308.858307
	C356.079346,316.458618 352.104858,324.964355 345.100922,329.280792
	C337.459534,333.990112 328.703979,333.143097 320.367859,326.658691
z"/>
<path fill="#FFFFFF" opacity="1.000000" stroke="none"
	d="
M157.994293,296.967255
	C165.577179,290.719482 173.631119,289.651031 181.851471,294.229340
	C189.302673,298.379272 192.859085,305.174957 192.058609,313.774658
	C191.260452,322.349335 186.544983,328.172638 178.483444,331.128265
	C169.810043,334.308228 160.050339,330.938721 154.855591,323.149658
	C149.369980,314.924469 150.428543,305.393982 157.994293,296.967255
z"/>
<path fill="#FFFFFF" opacity="1.000000" stroke="none"
	d="
M311.125183,179.075195
	C297.879547,199.960159 280.106903,215.011841 257.622772,224.350922
	C255.347733,225.295914 252.017990,225.378128 249.762543,224.445847
	C206.560379,206.588593 178.999496,165.286804 178.847427,118.543137
	C178.824661,111.545685 178.946289,104.545784 178.788727,97.551804
	C178.731293,95.002266 179.442261,93.756569 182.017776,92.931091
	C204.958038,85.578552 227.836349,78.032768 250.777420,70.682793
	C252.517212,70.125374 254.750626,70.156525 256.497223,70.716629
	C279.277008,78.021881 302.024475,85.429482 324.722534,92.984283
	C326.196167,93.474777 328.258087,95.374413 328.261932,96.624039
	C328.312988,113.244324 330.062653,130.141129 324.835938,146.232498
	C321.220093,157.364578 315.870972,167.933670 311.125183,179.075195
M246.959366,127.101486
	C245.619675,127.750793 244.214722,128.293442 242.950821,129.066650
	C234.518997,134.224976 231.069061,144.543167 234.638596,153.769791
	C238.143219,162.828598 247.841522,168.372269 256.947266,166.521683
	C268.687042,164.135803 276.100189,153.335785 273.583862,142.284332
	C270.875305,130.388611 259.990662,123.913872 246.959366,127.101486
z"/>
<path fill="#FFFFFF" opacity="1.000000" stroke="none"
	d="
M247.352600,127.008057
	C259.990662,123.913872 270.875305,130.388611 273.583862,142.284332
	C276.100189,153.335785 268.687042,164.135803 256.947266,166.521683
	C247.841522,168.372269 238.143219,162.828598 234.638596,153.769791
	C231.069061,144.543167 234.518997,134.224976 242.950821,129.066650
	C244.214722,128.293442 245.619675,127.750793 247.352600,127.008057
z"/>
</svg>